HIERARCHY
ROOT Bip001_Pelvis
{
  OFFSET 33.2923 95.8902 -28.781
  CHANNELS 6 Xposition Yposition Zposition Zrotation Xrotation Yrotation
  JOINT Bip001_Spine
  {
    OFFSET 1.4188e-005 10.2191 -0.0116013
    CHANNELS 3 Zrotation Xrotation Yrotation
    JOINT Bip001_L_Thigh
    {
      OFFSET 11.0458 -10.2192 0.0116197
      CHANNELS 3 Zrotation Xrotation Yrotation
      JOINT Bip001_L_Calf
      {
        OFFSET -0.707118 -44.0221 0.360014
        CHANNELS 3 Zrotation Xrotation Yrotation
        JOINT Bip001_L_Foot
        {
          OFFSET -0.651902 -40.5938 -3.56146
          CHANNELS 3 Zrotation Xrotation Yrotation
          JOINT Bip001_L_Toe0
          {
            OFFSET 0.0530839 -10.2181 13.1504
            CHANNELS 3 Zrotation Xrotation Yrotation
            End Site
            {
              OFFSET -1.02532e-005 0 7.55606
            }
          }
        }
      }
    }
    JOINT Bip001_R_Thigh
    {
      OFFSET -11.0458 -10.2191 0.0115893
      CHANNELS 3 Zrotation Xrotation Yrotation
      JOINT Bip001_R_Calf
      {
        OFFSET 0.706994 -44.0221 0.35984
        CHANNELS 3 Zrotation Xrotation Yrotation
        JOINT Bip001_R_Foot
        {
          OFFSET 0.651786 -40.5938 -3.5613
          CHANNELS 3 Zrotation Xrotation Yrotation
          JOINT Bip001_R_Toe0
          {
            OFFSET -0.0531479 -10.2181 13.1504
            CHANNELS 3 Zrotation Xrotation Yrotation
            End Site
            {
              OFFSET -1.02894e-005 0 7.55606
            }
          }
        }
      }
    }
    JOINT Bip001_Spine1
    {
      OFFSET 1.87041e-005 14.5736 1.08638
      CHANNELS 3 Zrotation Xrotation Yrotation
      JOINT Bip001_Spine2
      {
        OFFSET 2.24614e-005 14.5058 -1.69078
        CHANNELS 3 Zrotation Xrotation Yrotation
        JOINT Bip001_Neck
        {
          OFFSET 2.20278e-005 15.3945 -0.489414
          CHANNELS 3 Zrotation Xrotation Yrotation
          JOINT Bip001_L_Clavicle
          {
            OFFSET 6.06036 -0.000579998 0.00836775
            CHANNELS 3 Zrotation Xrotation Yrotation
            JOINT Bip001_L_UpperArm
            {
              OFFSET 11.5509 -0.0600302 0.00193952
              CHANNELS 3 Zrotation Xrotation Yrotation
              JOINT Bip001_L_Forearm
              {
                OFFSET 25.9523 0.0806089 -2.15551
                CHANNELS 3 Zrotation Xrotation Yrotation
                JOINT Bip001_L_Hand
                {
                  OFFSET 32.2476 0.153767 1.63968
                  CHANNELS 3 Zrotation Xrotation Yrotation
                  JOINT Bip001_L_Finger0
                  {
                    OFFSET 6.04639 -2.20976 5.90322
                    CHANNELS 3 Zrotation Xrotation Yrotation
                    End Site
                    {
                      OFFSET 4.22376 -1.43895 0.606486
                    }
                  }
                  JOINT Bip001_L_Finger1
                  {
                    OFFSET 11.0826 -0.704819 -0.198153
                    CHANNELS 3 Zrotation Xrotation Yrotation
                    End Site
                    {
                      OFFSET 6.20028 -0.397518 -0.0787166
                    }
                  }
                }
              }
            }
          }
          JOINT Bip001_R_Clavicle
          {
            OFFSET -6.06036 -0.000563197 0.00835105
            CHANNELS 3 Zrotation Xrotation Yrotation
            JOINT Bip001_R_UpperArm
            {
              OFFSET -11.5509 -0.0599978 0.00190698
              CHANNELS 3 Zrotation Xrotation Yrotation
              JOINT Bip001_R_Forearm
              {
                OFFSET -25.9523 0.080682 -2.1559
                CHANNELS 3 Zrotation Xrotation Yrotation
                JOINT Bip001_R_Hand
                {
                  OFFSET -32.2476 0.153858 1.63991
                  CHANNELS 3 Zrotation Xrotation Yrotation
                  JOINT Bip001_R_Finger0
                  {
                    OFFSET -6.04641 -2.20974 5.90321
                    CHANNELS 3 Zrotation Xrotation Yrotation
                    End Site
                    {
                      OFFSET -4.22376 -1.43894 0.606474
                    }
                  }
                  JOINT Bip001_R_Finger1
                  {
                    OFFSET -11.0826 -0.704789 -0.198184
                    CHANNELS 3 Zrotation Xrotation Yrotation
                    End Site
                    {
                      OFFSET -6.20028 -0.397501 -0.0787338
                    }
                  }
                }
              }
            }
          }
          JOINT Bip001_Head
          {
            OFFSET 1.09673e-005 11.2744 2.05948
            CHANNELS 3 Zrotation Xrotation Yrotation
            End Site
            {
              OFFSET 2.89576e-005 20.8808 -2.77728e-005
            }
          }
        }
      }
    }
  }
}
MOTION
Frames:	9
Frame Time:	0.04
32.7987 95.8901 -29.3031 0.276314 -0.422854 1.95045 -0.446299 2.30949 -0.314583 5.2691 -3.85375 5.57928 -0.712941 7.41407 -11.697 6.20488 -0.521018 -0.285936 -2.94388 -5.66649 4.99585 -2.78316 -3.95761 -1.54694 0.116308 11.0139 -0.110386 -5.46219 -9.4682 2.21001 2.13237 -7.25324 2.20192 -0.88142 4.61164 -0.612193 -0.881223 4.61167 -0.612057 -1.41643 -3.78748 -1.62235 -23.3016 4.84967 -0.0374156 -49.2685 39.8301 -1.7424 13.0821 1.69619 -24.9535 7.93673 1.16443 -2.12502 -3.18055e-015 9.54166e-015 -1.59028e-015 3.18055e-015 3.18056e-015 -1.59028e-015 19.3658 12.7039 30.6535 61.9101 -14.2484 61.6076 -34.1234 1.4861 96.3085 -48.5462 22.2455 10.0372 -7.95139e-016 -1.59028e-014 -2.38542e-015 -1.98785e-015 -9.54167e-015 -6.75868e-015 3.0094 13.9969 -2.91603 
32.7048 95.8913 -29.1581 0.397673 -0.647016 1.56143 -0.505888 2.3184 -0.205104 5.28268 -3.26006 6.7355 -0.648362 7.00904 -12.5631 6.02842 -0.552007 -0.276705 -2.9657 -5.60736 5.00688 -2.73095 -3.77709 -1.32206 -0.000754233 11.1501 -0.0661434 -5.44427 -9.58924 2.27412 2.12458 -7.22689 2.19211 -1.0047 4.63838 -0.390172 -1.0047 4.63841 -0.390172 -1.16452 -3.68978 -1.72938 -23.6094 4.60348 0.366437 -49.1712 39.9797 -1.73467 13.136 1.74661 -24.9354 8.02451 1.12298 -2.26857 -3.18055e-015 0 1.59028e-015 -6.36111e-015 -3.18056e-015 -0 18.4885 12.7431 31.9556 57.7813 -11.2268 61.5677 -34.9964 2.10306 89.5316 -49.1701 21.4745 11.0005 -8.82781e-032 -6.36111e-015 -7.95139e-016 -7.95139e-016 -3.18056e-015 -0 2.90282 14.0981 -2.92015 
32.6125 95.8865 -29.0713 0.433301 -0.772386 1.44576 -0.536749 2.29879 -0.1241 5.37315 -2.94186 7.41875 -0.67743 6.82984 -13.2519 6.08652 -0.473097 -0.275021 -2.93319 -5.67311 5.00229 -2.64179 -3.60261 -1.24704 -0.0588144 11.1779 -0.121694 -5.43754 -9.67063 2.2833 2.11872 -7.19815 2.18554 -1.0698 4.59865 -0.226892 -1.0698 4.59866 -0.226892 -0.928679 -3.63619 -1.94458 -23.7641 4.33053 0.951595 -49.5895 40.1831 -1.63433 13.3754 1.56344 -24.7162 8.11362 1.29723 -2.38551 -9.54166e-015 -3.18055e-015 -1.59028e-015 -9.54166e-015 6.36111e-015 -0 17.3211 12.5526 32.6328 47.5602 -5.29219 57.8021 -36.4247 -4.89304 78.023 -44.6923 22.2458 11.4656 -1.59028e-015 -3.18055e-015 -1.59028e-015 -0 -6.36111e-015 -0 2.74686 14.3077 -3.01526 
32.4914 95.8859 -29.1108 0.284251 -0.713273 1.92716 -0.523792 2.25508 -0.175335 5.67047 -3.22531 6.94718 -0.806205 7.13953 -13.1692 6.0129 -0.617724 -0.273449 -2.97625 -5.59491 5.01809 -2.3712 -3.47078 -1.37463 -0.113589 10.9678 -0.231504 -5.5057 -9.57171 2.10089 2.11311 -7.19396 2.18222 -1.04187 4.51148 -0.330422 -1.04187 4.51153 -0.330421 -0.811561 -3.25508 -2.10093 -23.9697 3.81515 1.26473 -49.3435 39.6378 -1.4955 13.3472 2.416 -25.1165 8.19278 1.03819 -2.38703 6.36111e-015 3.18055e-015 3.18055e-015 6.36111e-015 3.18056e-015 3.18055e-015 15.8274 11.9228 33.6353 37.0724 0.356753 54.8313 -38.1537 -10.9553 64.92 -38.134 23.0219 10.895 2.64834e-031 -9.54166e-015 1.59028e-015 3.53113e-031 -1.27222e-014 1.59028e-015 2.78105 14.2441 -3.14807 
32.3814 95.8851 -29.0796 0.220171 -0.767141 1.97488 -0.550038 2.25925 -0.151308 5.87659 -3.17313 7.43211 -0.828507 7.17744 -13.7301 6.0136 -0.615113 -0.271068 -2.96462 -5.63421 5.00389 -2.1681 -3.35362 -1.2484 -0.147138 10.8851 -0.216328 -5.57601 -9.52834 1.92133 2.10323 -7.14843 2.15916 -1.09477 4.51249 -0.28166 -1.09509 4.51248 -0.281729 -0.64628 -3.11967 -2.25234 -24.2935 3.46227 1.86604 -49.0291 39.9134 -1.82638 13.4924 2.46767 -24.9181 8.23125 1.07481 -2.33938 3.18055e-015 -9.54166e-015 -1.59028e-015 6.36111e-015 -9.54167e-015 -1.59028e-015 14.1597 11.6112 35.274 31.1747 2.7225 54.1849 -37.9532 -16.6112 54.0645 -37.5106 22.4462 9.6048 3.18055e-015 0 -3.18055e-015 -3.18055e-015 3.18056e-015 -3.18055e-015 2.89456 14.3295 -3.28968 
32.2056 95.8836 -29.1351 -0.152094 -0.722699 2.42329 -0.509833 2.25544 -0.179993 6.46897 -3.67487 7.3383 -0.975328 7.86982 -13.9029 5.84223 -1.02002 -0.240239 -2.98348 -5.50115 4.99168 -1.63949 -3.16463 -1.1847 -0.196475 10.4129 -0.163728 -5.73686 -9.22183 1.44555 2.11133 -7.16735 2.15573 -1.0142 4.51238 -0.338199 -1.01388 4.5124 -0.33874 -0.415785 -3.22761 -2.52169 -24.7006 3.16183 3.03929 -48.5146 40.3086 -2.45317 13.5797 2.43963 -24.8514 8.40891 1.14642 -2.23966 6.36111e-015 -6.36111e-015 3.18055e-015 6.36111e-015 -6.36111e-015 3.18055e-015 13.3421 11.8536 36.689 31.1321 2.00765 53.9521 -39.3923 -19.0283 52.3865 -40.7838 20.4006 11.4506 3.18055e-015 3.18055e-015 -0 1.76556e-031 6.36111e-015 -1.59028e-015 2.94194 14.5243 -3.50427 
32.0496 95.8883 -29.1783 -0.385874 -0.599044 2.92873 -0.531233 2.15236 -0.162151 6.90197 -4.02617 7.17436 -1.08641 8.24122 -14.1669 5.92887 -1.05668 -0.231261 -2.93317 -5.53399 4.94224 -1.20856 -3.00738 -1.49186 -0.323542 10.1056 -0.0718477 -5.80428 -9.02086 1.20545 2.10095 -7.14981 2.16986 -1.05615 4.30607 -0.303483 -1.05675 4.30608 -0.304131 1.8776 -2.11991 -3.50207 -26.8799 1.54945 3.60177 -48.737 39.5055 -2.1764 13.1902 1.84571 -24.9912 8.04715 1.31371 -2.11255 -6.36111e-015 -6.36111e-015 -0 -6.36111e-015 -3.18056e-015 -3.18055e-015 12.3846 11.2872 37.0613 33.4841 -0.0715134 51.6221 -37.5722 -17.0868 59.6761 -43.7075 20.5005 11.5514 3.18055e-015 -6.36111e-015 1.59028e-015 3.18055e-015 -6.36111e-015 3.18055e-015 0.99602 13.7869 -3.15546 
32.0752 95.8987 -29.2049 -0.101751 -0.42315 3.26453 -0.582095 2.08202 -0.242633 6.56773 -3.97971 7.16771 -0.936218 7.77243 -14.3977 5.52238 -0.969382 -0.229261 -3.0431 -5.38081 5.02068 -1.4956 -3.19064 -1.9216 -0.328487 10.3882 -0.186714 -5.7209 -9.24109 1.44418 2.0871 -7.10331 2.16213 -1.1565 4.16637 -0.464531 -1.1565 4.16638 -0.464532 2.12603 -1.3885 -3.48203 -27.0289 0.838716 3.42637 -49.3799 38.0797 -1.86369 13.2865 3.12616 -24.9097 8.25062 0.988075 -2.45658 0 0 -0 -0 0 3.18055e-015 12.9889 10.6908 36.3641 34.7835 -2.2196 53.3775 -37.2766 -11.1522 63.9332 -46.1823 20.7372 11.6168 -4.77083e-015 -3.18055e-015 1.59028e-015 -3.18055e-015 -3.18056e-015 3.18055e-015 0.559502 13.305 -2.92238 
32.1195 95.9033 -29.228 0.0875277 -0.402329 3.19668 -0.58111 2.07155 -0.283888 6.30726 -3.8117 7.06725 -0.94898 7.4096 -14.3084 5.71372 -0.615205 -0.257486 -2.99888 -5.50116 5.00196 -1.76273 -3.37919 -1.83879 -0.249532 10.726 -0.154882 -5.71524 -9.36862 1.43431 2.08037 -7.07411 2.1363 -1.15059 4.14602 -0.549336 -1.15033 4.14602 -0.549302 1.40059 -1.17291 -2.95774 -26.2512 0.94753 2.79446 -49.8619 37.8287 -1.20291 13.3526 3.55159 -25.358 7.76826 1.12691 -2.53389 -0 0 6.36111e-015 3.18055e-015 -6.36111e-015 6.36111e-015 14.3708 10.4146 35.064 34.664 -3.01387 53.1066 -36.722 -8.99144 68.6296 -50.1468 21.2384 11.6946 3.18055e-015 0 -0 1.59028e-015 0 2.38542e-015 0.945189 13.1659 -2.74879 
